<svg xmlns="http://www.w3.org/2000/svg" viewBox="0 0 512 512">
  <defs>
    <linearGradient id="g" x1="0%" y1="0%" x2="100%" y2="100%">
      <stop offset="0%" stop-color="#00e5ff"/>
      <stop offset="100%" stop-color="#7c4dff"/>
    </linearGradient>
    <linearGradient id="gi" x1="100%" y1="0%" x2="0%" y2="100%">
      <stop offset="0%" stop-color="#00e5ff"/>
      <stop offset="100%" stop-color="#7c4dff"/>
    </linearGradient>
  </defs>
  <rect width="512" height="512" rx="96" fill="#080c16"/>
  <rect width="512" height="512" rx="96" fill="none" stroke="url(#g)" stroke-width="4"/>
  <polygon points="256,48 400,124 400,276 256,352 112,276 112,124"
           fill="none" stroke="url(#g)" stroke-width="4"/>
  <polygon points="256,96 360,152 360,248 256,304 152,248 152,152"
           fill="none" stroke="url(#g)" stroke-width="1.5" opacity="0.3"/>
  <g stroke="url(#g)" fill="none" stroke-width="2.5" opacity="0.4">
    <path d="M170,212 Q256,184 342,212"/>
    <path d="M152,242 Q256,208 360,242"/>
    <path d="M134,272 Q256,232 378,272"/>
  </g>
  <text x="256" y="248" text-anchor="middle" font-size="120" font-weight="900"
        fill="url(#g)" font-family="Segoe UI,system-ui,-apple-system,sans-serif"
        letter-spacing="2">ZI</text>
  <text x="256" y="310" text-anchor="middle" font-size="32" font-weight="700"
        fill="#7a8ba8" font-family="Segoe UI,system-ui,-apple-system,sans-serif"
        letter-spacing="8">CHAT</text>
</svg>
